<?xml version="1.0" encoding="utf-8"?>
<!DOCTYPE svg PUBLIC "-//W3C//DTD SVG 1.0//EN" "http://www.w3.org/TR/2001/REC-SVG-20010904/DTD/svg10.dtd">
<svg version="1.0" xmlns="http://www.w3.org/2000/svg" width="35px" height="35px" viewBox="0 0 35 35" preserveAspectRatio="xMidYMid meet">
 <g fill="#38b0d6">
  <path d="M15.72 33.25 c-2.52 -0.33 -5.24 -1.38 -7.29 -2.83 -1.06 -0.75 -2.78 -2.43 -3.51 -3.43 -1.49 -2.04 -2.44 -4.25 -2.92 -6.75 -0.26 -1.39 -0.24 -4.13 0.05 -5.57 1.31 -6.54 6.31 -11.48 12.82 -12.66 1.48 -0.27 4.09 -0.25 5.57 0.04 6.41 1.28 11.21 6 12.60 12.42 0.19 0.85 0.22 1.31 0.22 3.07 0 2.29 -0.13 3.16 -0.74 5.01 -1.31 3.94 -4.39 7.43 -8.14 9.22 -2.17 1.04 -3.92 1.43 -6.49 1.48 -1.01 0.02 -1.99 0.01 -2.18 -0.02z m3.38 -12.16 l0.03 -5.81 2.35 -0.03 2.34 -0.02 0 -1.14 0 -1.14 -1.81 0 -1.82 0 -0.44 0.34 c-0.67 0.52 -1.30 0.68 -2.44 0.63 -0.78 -0.03 -1.05 -0.09 -1.45 -0.30 -0.27 -0.14 -0.58 -0.35 -0.68 -0.46 -0.18 -0.20 -0.29 -0.21 -2.01 -0.21 l-1.81 0 0 1.14 0 1.14 2.32 0 2.32 0 0 5.83 0 5.83 1.53 0 1.53 0 0.02 -5.80z m-0.99 -8.45 c0.86 -0.26 1.66 -1.30 1.66 -2.16 0 -1.23 -1.48 -2.49 -2.55 -2.18 -0.82 0.23 -1.51 0.85 -1.79 1.61 -0.36 0.94 0.30 2.14 1.42 2.65 0.46 0.22 0.73 0.23 1.26 0.07z"/>
 </g>
 <g fill="#ffffff">
  <path d="M15.72 21.36 l0 -5.83 -2.32 0 -2.32 0 0 -1.43 0 -1.43 2.11 0 c2.03 0 2.13 0.01 2.30 0.21 0.35 0.39 1.14 0.71 1.84 0.76 0.82 0.06 1.52 -0.15 2.15 -0.63 l0.44 -0.34 2.12 0 2.11 0 0 1.43 0 1.43 -2.34 0.02 -2.35 0.03 -0.03 5.81 -0.02 5.80 -1.83 0 -1.83 0 0 -5.83z"/>
  <path d="M16.56 12.86 c-0.99 -0.44 -1.53 -1.29 -1.53 -2.36 0 -1.02 0.44 -1.77 1.29 -2.23 1.31 -0.71 2.94 -0.21 3.57 1.09 0.31 0.64 0.31 1.60 0 2.23 -0.28 0.57 -0.95 1.19 -1.47 1.34 -0.56 0.17 -1.39 0.14 -1.85 -0.07z"/>
 </g>
</svg>